<svg width="16" height="16" viewBox="0 0 16 16" fill="none" xmlns="http://www.w3.org/2000/svg">
<path d="M14.7407 12.2833L11.3532 9.20333C11.1931 9.05779 10.9827 8.98017 10.7664 8.98686C10.5501 8.99355 10.3449 9.08401 10.194 9.23917L8.19987 11.29C7.71987 11.1983 6.75487 10.8975 5.76154 9.90667C4.7682 8.9125 4.46737 7.945 4.3782 7.46833L6.42737 5.47333C6.58271 5.32261 6.67332 5.11735 6.68 4.90101C6.68669 4.68466 6.60894 4.4742 6.4632 4.31417L3.38404 0.9275C3.23824 0.766963 3.0356 0.669586 2.81916 0.656049C2.60273 0.642512 2.38954 0.713881 2.22487 0.855L0.416537 2.40583C0.272463 2.55043 0.18647 2.74287 0.17487 2.94667C0.16237 3.155 -0.0759629 8.09 3.7507 11.9183C7.08904 15.2558 11.2707 15.5 12.4224 15.5C12.5907 15.5 12.694 15.495 12.7215 15.4933C12.9253 15.4819 13.1176 15.3956 13.2615 15.2508L14.8115 13.4417C14.9532 13.2775 15.0251 13.0645 15.0119 12.8481C14.9986 12.6317 14.9013 12.429 14.7407 12.2833Z" fill="#17191C"/>
</svg>
