<svg width="24" height="24" viewBox="0 0 24 24" fill="none" xmlns="http://www.w3.org/2000/svg">
<g clip-path="url(#clip0_401_2323)">
<path fill-rule="evenodd" clip-rule="evenodd" d="M12 24C14.3734 24 16.6935 23.2962 18.6668 21.9776C20.6402 20.6591 22.1783 18.7849 23.0866 16.5922C23.9948 14.3995 24.2324 11.9867 23.7694 9.65892C23.3064 7.33115 22.1635 5.19295 20.4853 3.51472C18.8071 1.83649 16.6689 0.693605 14.3411 0.230582C12.0133 -0.232441 9.60051 0.00519939 7.4078 0.913451C5.21509 1.8217 3.34094 3.35977 2.02236 5.33316C0.703788 7.30655 0 9.62663 0 12C0 15.1826 1.26428 18.2349 3.51472 20.4853C5.76516 22.7357 8.8174 24 12 24Z" fill="#17191C"/>
<path d="M10.9426 10.2105C10.7357 9.92776 10.4569 9.70566 10.135 9.56726C9.75909 9.39379 9.34903 9.30685 8.93504 9.31286C8.07104 9.31286 7.32584 9.68606 6.70544 10.4277V6.34766H4.77344V16.9209H6.70184V13.1937C6.70184 12.5681 6.75984 12.0953 6.87584 11.7753C6.97285 11.4789 7.16853 11.2248 7.43024 11.0553C7.68648 10.8938 7.98419 10.8104 8.28704 10.8153C8.53281 10.8057 8.77565 10.8714 8.98304 11.0037C9.16533 11.1213 9.30237 11.2973 9.37184 11.5029C9.44504 11.7129 9.47984 12.2073 9.47984 12.9873V16.9209H11.413V12.5577C11.4266 12.0632 11.3933 11.5686 11.3134 11.0805C11.2503 10.7682 11.1242 10.4722 10.9426 10.2105Z" fill="white"/>
<path d="M18.9177 11.0805C18.8541 10.7684 18.7279 10.4725 18.5469 10.2105C18.3404 9.92834 18.0625 9.70633 17.7417 9.56726C17.3656 9.39437 16.9556 9.30746 16.5417 9.31286C15.6777 9.31286 14.9345 9.68446 14.3121 10.4277V6.34766H12.3789V16.9209H14.3085V13.2009C14.3085 12.5753 14.3665 12.1025 14.4825 11.7825C14.5808 11.4868 14.7762 11.2331 15.0369 11.0625C15.2928 10.9012 15.5901 10.8178 15.8925 10.8225C16.1387 10.8127 16.3819 10.8785 16.5897 11.0109C16.772 11.1285 16.909 11.3045 16.9785 11.5101C17.0513 11.7205 17.0877 12.2153 17.0877 12.9945V16.9209H19.0173V12.5577C19.0303 12.0632 18.997 11.5687 18.9177 11.0805Z" fill="white"/>
</g>
<defs>
<clipPath id="clip0_401_2323">
<rect width="24" height="24" fill="white"/>
</clipPath>
</defs>
</svg>
