<svg width="24" height="24" viewBox="0 0 24 24" fill="none" xmlns="http://www.w3.org/2000/svg">
<g clip-path="url(#clip0_401_2315)">
<path d="M12 24C18.6274 24 24 18.6274 24 12C24 5.37258 18.6274 0 12 0C5.37258 0 0 5.37258 0 12C0 18.6274 5.37258 24 12 24Z" fill="#17191C"/>
<path fill-rule="evenodd" clip-rule="evenodd" d="M5.43104 11.8729L12.4292 8.85855C15.7617 7.47243 16.4542 7.23166 16.9055 7.22372C17.0048 7.22197 17.2268 7.24657 17.3705 7.36323C17.492 7.46173 17.5253 7.59483 17.5413 7.68819C17.5574 7.78155 17.5772 7.99436 17.5614 8.16061C17.3808 10.058 16.5994 14.6628 16.2019 16.788C16.0336 17.6873 15.7027 17.9888 15.3818 18.0183C14.6849 18.0824 14.1557 17.5577 13.4808 17.1153L10.8028 15.3164C9.61799 14.5357 10.386 14.1066 11.0613 13.4053C11.2379 13.2217 14.3083 10.429 14.3677 10.1756C14.3749 10.1439 14.3821 10.0259 14.3119 9.96346C14.2418 9.90106 14.1381 9.92266 14.0634 9.93939C13.9575 9.96344 12.2703 11.0786 9.00179 13.285C8.52287 13.6139 8.08907 13.7741 7.70043 13.7657C7.27196 13.7564 6.44778 13.5235 5.83508 13.3243C5.08357 13.08 4.48628 12.9508 4.53832 12.536C4.56539 12.3199 4.86296 12.0989 5.43102 11.873L5.43104 11.8729Z" fill="white"/>
</g>
<defs>
<clipPath id="clip0_401_2315">
<rect width="24" height="24" fill="white"/>
</clipPath>
</defs>
</svg>
