<svg width="24" height="24" viewBox="0 0 24 24" fill="none" xmlns="http://www.w3.org/2000/svg">
<g clip-path="url(#clip0_401_2320)">
<path d="M0 11.52C0 6.088 0 3.376 1.68 1.68C3.384 0 6.096 0 11.52 0H12.48C17.912 0 20.624 0 22.32 1.68C24 3.384 24 6.096 24 11.52V12.48C24 17.912 24 20.624 22.32 22.32C20.616 24 17.904 24 12.48 24H11.52C6.088 24 3.376 24 1.68 22.32C0 20.616 0 17.904 0 12.48V11.52Z" fill="#17191C"/>
<path d="M12.7669 17.2879C7.29487 17.2879 4.17488 13.5439 4.04688 7.3039H6.79888C6.88688 11.8799 8.90287 13.8159 10.5029 14.2159V7.3039H13.0869V11.2479C14.6629 11.0799 16.3269 9.2799 16.8869 7.2959H19.4629C19.2528 8.32291 18.8333 9.29558 18.2304 10.1531C17.6275 11.0107 16.8542 11.7347 15.9589 12.2799C16.958 12.7772 17.8404 13.4807 18.5478 14.3439C19.2552 15.2071 19.7716 16.2105 20.0629 17.2879H17.2229C16.6149 15.3919 15.0949 13.9199 13.0869 13.7199V17.2879H12.7749H12.7669Z" fill="white"/>
</g>
<defs>
<clipPath id="clip0_401_2320">
<rect width="24" height="24" fill="white"/>
</clipPath>
</defs>
</svg>
