<svg width="24" height="24" viewBox="0 0 24 24" fill="none" xmlns="http://www.w3.org/2000/svg">
<path fill-rule="evenodd" clip-rule="evenodd" d="M11.9989 20.9999C10.3377 21.0198 8.70472 20.5691 7.28891 19.6999L6.98891 19.4999L3.47891 20.3999L4.38891 16.9999L4.18891 16.6999C3.27479 15.2252 2.78996 13.5249 2.78891 11.7899C2.78693 9.96549 3.32624 8.18152 4.33859 6.66377C5.35093 5.14601 6.7908 3.96271 8.47594 3.26363C10.1611 2.56455 12.0157 2.38112 13.8052 2.73656C15.5946 3.092 17.2384 3.97032 18.5284 5.26036C19.8185 6.55041 20.6968 8.19417 21.0522 9.98361C21.4077 11.773 21.2242 13.6277 20.5252 15.3128C19.8261 16.998 18.6428 18.4379 17.125 19.4502C15.6073 20.4625 13.8233 21.0019 11.9989 20.9999ZM15.0989 13.2999C15.3989 13.3999 16.6989 14.0999 16.9989 14.1999L17.0089 14.2199C17.2016 14.2878 17.4046 14.3216 17.6089 14.3199C17.6026 14.7604 17.5353 15.1979 17.4089 15.6199C16.9425 16.2574 16.2721 16.7161 15.5089 16.9199C14.9429 17.0304 14.3581 16.996 13.8089 16.8199C13.4089 16.6199 12.9089 16.5199 12.2089 16.2199C10.2719 15.3381 8.63486 13.9096 7.49891 12.1099C6.87217 11.2971 6.49055 10.3222 6.39891 9.29988C6.38211 8.86602 6.46329 8.43394 6.63641 8.03575C6.80953 7.63757 7.07015 7.28351 7.39891 6.99988C7.58807 6.8182 7.83689 6.71157 8.09891 6.69988H8.59891C8.79891 6.69988 8.89891 6.69988 9.19891 7.19988C9.49891 7.69988 10.0989 8.99988 10.0989 9.19988C10.0989 9.39988 10.1989 9.49988 10.0989 9.69988C9.99891 9.89988 9.89891 9.99988 9.79891 10.1999C9.69079 10.3852 9.55602 10.5537 9.39891 10.6999C9.29891 10.8999 9.09891 10.9999 9.29891 11.2999C9.66921 12.0256 10.1789 12.6713 10.7989 13.1999C11.4079 13.838 12.1629 14.3185 12.9989 14.5999C13.2989 14.6999 13.3989 14.6999 13.5989 14.4999C13.9231 14.1537 14.2237 13.7862 14.4989 13.3999C14.6989 13.1999 14.7989 13.1999 15.0989 13.2999Z" fill="#17191C"/>
<path fill-rule="evenodd" clip-rule="evenodd" d="M7.28891 19.6999C8.70472 20.5691 10.3377 21.0198 11.9989 20.9999C13.8233 21.0019 15.6073 20.4625 17.125 19.4502C18.6428 18.4379 19.8261 16.998 20.5252 15.3128C21.2242 13.6277 21.4077 11.773 21.0522 9.98361C20.6968 8.19417 19.8185 6.55041 18.5284 5.26036C17.2384 3.97032 15.5946 3.092 13.8052 2.73656C12.0157 2.38112 10.1611 2.56455 8.47594 3.26363C6.7908 3.96271 5.35093 5.14601 4.33859 6.66377C3.32624 8.18152 2.78693 9.96549 2.78891 11.7899C2.78996 13.5249 3.27479 15.2252 4.18891 16.6999L4.38891 16.9999L3.47891 20.3999L6.98891 19.4999L7.28891 19.6999ZM11.9989 0.879883C14.9152 0.911111 17.7092 2.0559 19.8089 4.07988L19.7889 4.10988C21.8446 6.19804 23.0281 8.99053 23.0989 11.9199C23.0989 13.3644 22.8144 14.7948 22.2616 16.1294C21.7088 17.464 20.8985 18.6766 19.8771 19.6981C18.8556 20.7195 17.643 21.5298 16.3084 22.0826C14.9738 22.6354 13.5434 22.9199 12.0989 22.9199C10.2461 22.9541 8.41631 22.5061 6.78891 21.6199L0.878906 23.1199L2.49891 17.3899C1.51632 15.7199 0.998419 13.8175 0.998906 11.8799C0.998906 8.9625 2.15783 6.16461 4.22073 4.10171C6.28363 2.03881 9.08153 0.879883 11.9989 0.879883Z" fill="#17191C"/>
</svg>
