<svg width="16" height="16" viewBox="0 0 16 16" fill="none" xmlns="http://www.w3.org/2000/svg">
<path fill-rule="evenodd" clip-rule="evenodd" d="M13.6509 2.69C12.9588 1.99363 12.1355 1.44149 11.2285 1.06557C10.3215 0.689651 9.34898 0.497415 8.36719 0.499999C4.25156 0.499999 0.898437 3.85 0.898437 7.96562C0.895318 9.2761 1.23904 10.5641 1.89469 11.6987L0.835938 15.5681L4.79594 14.5281C5.89093 15.1246 7.11777 15.4377 8.36469 15.4387H8.36781C12.4841 15.4387 15.8334 12.0894 15.8359 7.97062C15.8359 5.97625 15.0597 4.10125 13.6509 2.68937V2.69ZM8.36719 14.1769H8.36469C7.25316 14.1769 6.16203 13.8783 5.20531 13.3125L4.97844 13.1781L2.62719 13.7937L3.25469 11.5031L3.10844 11.2687C2.48631 10.2795 2.15695 9.13427 2.15844 7.96562C2.15844 4.54562 4.94406 1.7625 8.36969 1.7625C9.18495 1.76046 9.99251 1.92016 10.7456 2.23235C11.4988 2.54454 12.1825 3.00302 12.7572 3.58125C13.3347 4.1567 13.7926 4.84088 14.1042 5.59427C14.4158 6.34766 14.5751 7.15533 14.5728 7.97062C14.5728 11.3937 11.7878 14.1769 8.36719 14.1769ZM11.7703 9.52812C11.5847 9.43562 10.6666 8.98437 10.4959 8.92312C10.3253 8.85937 10.2003 8.83 10.0759 9.01562C9.95094 9.20312 9.59469 9.62375 9.48531 9.74812C9.37781 9.87 9.26781 9.8875 9.08219 9.79437C8.89469 9.70187 8.29406 9.50375 7.58094 8.86687C7.02656 8.37312 6.65094 7.76062 6.54344 7.575C6.43344 7.3875 6.53094 7.2875 6.62406 7.19375C6.70906 7.11125 6.81156 6.97687 6.90469 6.86687C6.99719 6.76 7.02969 6.68187 7.09219 6.55687C7.15344 6.4325 7.12219 6.3225 7.07531 6.23C7.02906 6.1375 6.65594 5.21687 6.49969 4.84312C6.34781 4.47937 6.19406 4.53062 6.07969 4.52375C5.97219 4.51875 5.84781 4.51875 5.72344 4.51875C5.59844 4.51875 5.39594 4.565 5.22469 4.75312C5.05406 4.93875 4.57281 5.39062 4.57281 6.30812C4.57281 7.22625 5.24156 8.11437 5.33531 8.23937C5.42781 8.36125 6.65094 10.2456 8.52281 11.0544C8.86967 11.2044 9.22435 11.3356 9.58531 11.4475C10.0322 11.5887 10.4397 11.5694 10.7622 11.5225C11.1209 11.4694 11.8653 11.0712 12.0216 10.6344C12.1759 10.2 12.1759 9.82625 12.1291 9.74812C12.0828 9.67 11.9584 9.62312 11.7703 9.52812Z" fill="#38CD61"/>
</svg>
